<svg xmlns="http://www.w3.org/2000/svg" xmlns:xlink="http://www.w3.org/1999/xlink" width="107.16" height="107.16" viewBox="0 0 107.16 107.16">
  <defs>
    <clipPath id="clip-path">
      <rect id="Rectangle_2897" data-name="Rectangle 2897" width="107.16" height="107.16" rx="26" transform="translate(13 13)" fill="none"/>
    </clipPath>
    <clipPath id="clip-path-2">
      <rect id="Rectangle_2894" data-name="Rectangle 2894" width="8.832" height="7.728" fill="none"/>
    </clipPath>
    <clipPath id="clip-path-3">
      <rect id="Rectangle_2895" data-name="Rectangle 2895" width="6.641" height="5.974" fill="none"/>
    </clipPath>
  </defs>
  <g id="Hexnode_app_icon" data-name="Hexnode app icon" transform="translate(-13 -13)" clip-path="url(#clip-path)">
    <g id="Group_10010" data-name="Group 10010" transform="translate(9.586 9.585)">
      <rect id="Rectangle_2896" data-name="Rectangle 2896" width="113.991" height="113.991" rx="22" fill="#020a19"/>
      <path id="Path_6962" data-name="Path 6962" d="M66.623,114.427a13.39,13.39,0,0,1-9.308-3.7,14.1,14.1,0,0,1-4.228-10.274c.058-5.931.038-10.5.023-14.523L53.1,84.5l.007-1.779c.017-3.9.036-8.105-.023-13.961a14.1,14.1,0,0,1,4.231-10.279,13.613,13.613,0,0,1,6.625-3.436,14.274,14.274,0,0,1,4.156-.18,13.432,13.432,0,0,1,3.05.659,13.021,13.021,0,0,1,2.63,1.288,13.291,13.291,0,0,1,2,1.523c3.035,2.752,16.706,14.923,18.164,16.22l.618.581a9.836,9.836,0,0,1,1.691,2.026,6.783,6.783,0,0,1,.686,1.673,9.042,9.042,0,0,1,.258,2.056c.018.466.025.691.012,1.165-.007.411-.012,1.26-.01,2.5v.1c0,1.243,0,2.091.012,2.512.011.464,0,.694-.015,1.155a9.076,9.076,0,0,1-.258,2.059,6.947,6.947,0,0,1-.7,1.694,9.153,9.153,0,0,1-1.583,1.909l-.6.581c-.313.275-15.1,13.44-18.289,16.336a14.066,14.066,0,0,1-4.616,2.8,14.182,14.182,0,0,1-4.524.73m.016-53.142a7.694,7.694,0,0,0-1.435.13,7.23,7.23,0,0,0-3.415,1.779,7.693,7.693,0,0,0-2.2,5.5c.057,5.9.038,10.126.023,14.054L59.6,84.311l.005,1.6c.017,4.05.037,8.644-.02,14.61a7.684,7.684,0,0,0,2.2,5.5,7.273,7.273,0,0,0,3.419,1.783,7.569,7.569,0,0,0,2.242.091,7.427,7.427,0,0,0,1.563-.331,7.11,7.11,0,0,0,1.308-.651,7.782,7.782,0,0,0,1.08-.817c2.978-2.71,16.033-14.332,18.11-16.176l.635-.524c.17-.258.373-.448.513-.631.015-.117.033-.331.048-.7l.012-.731c-.012-.456-.017-1.36-.015-2.688v-.035q0-2.036.013-2.712l-.011-.737a5.358,5.358,0,0,0-.055-.707,8.439,8.439,0,0,0-.7-.739C88.161,78.1,74.458,65.9,71.4,63.128a7.316,7.316,0,0,0-1.075-.819A6.669,6.669,0,0,0,69,61.653a6.94,6.94,0,0,0-1.558-.328c-.286-.028-.556-.04-.806-.04" transform="translate(-27.051 -27.612)" fill="#fff"/>
      <g id="Group_10005" data-name="Group 10005" transform="translate(50.473 69.543)" opacity="0.4">
        <g id="Group_10004" data-name="Group 10004">
          <g id="Group_10003" data-name="Group 10003" clip-path="url(#clip-path-2)">
            <path id="Path_6963" data-name="Path 6963" d="M93.291,117.933l5.048,4.263-3.9,3.465-4.934-4.3,3.783-3.431" transform="translate(-89.508 -117.933)" fill="#020a19"/>
          </g>
        </g>
      </g>
      <path id="Path_6964" data-name="Path 6964" d="M110.2,114.428a14.121,14.121,0,0,1-1.475-.075,13.966,13.966,0,0,1-2.96-.626,13.682,13.682,0,0,1-2.723-1.317,13.936,13.936,0,0,1-1.979-1.508C98.006,108.126,84.315,95.938,82.89,94.67L82.28,94.1a10.139,10.139,0,0,1-1.713-2.048,7,7,0,0,1-.684-1.669,9.092,9.092,0,0,1-.256-2.063c-.017-.448-.025-.674-.017-1.137.01-.433.015-1.285.015-2.533v-.042c0-1.288,0-2.139-.015-2.562-.007-.474,0-.7.017-1.147a9.074,9.074,0,0,1,.256-2.064,7.076,7.076,0,0,1,.674-1.651,9.867,9.867,0,0,1,1.656-2l.523-.5c.331-.3,15.134-13.47,18.327-16.365a13.652,13.652,0,0,1,1.979-1.508,12.515,12.515,0,0,1,5.68-1.944,14.213,14.213,0,0,1,4.156.181,13.628,13.628,0,0,1,6.63,3.436,14.1,14.1,0,0,1,4.226,10.279c-.06,5.989-.038,10.248-.02,14.224l.007,1.3,0,1.355c-.02,4.1-.043,8.741.017,14.818a14.106,14.106,0,0,1-4.228,10.279,13.6,13.6,0,0,1-6.624,3.437,13.845,13.845,0,0,1-2.68.255M87,89.641c.313.266,15.442,13.741,18.425,16.451a7.425,7.425,0,0,0,1.075.817,7.047,7.047,0,0,0,1.357.671,7.508,7.508,0,0,0,1.518.311,7.809,7.809,0,0,0,2.222-.085,7.325,7.325,0,0,0,3.434-1.783,7.7,7.7,0,0,0,2.2-5.505c-.06-6.112-.037-10.785-.017-14.908l.005-1.137-.005-1.455c-.019-4-.04-8.293.017-14.322a7.7,7.7,0,0,0-2.2-5.5,7.258,7.258,0,0,0-3.419-1.779,7.715,7.715,0,0,0-2.242-.091,6.836,6.836,0,0,0-1.525.318,6.758,6.758,0,0,0-1.348.662,7.624,7.624,0,0,0-1.059.807c-3.248,2.946-18.306,16.348-18.4,16.43a12.183,12.183,0,0,0-.882.922c-.008.105-.025.315-.04.684l-.012.759c.01.436.015,1.337.015,2.66v.083c0,1.322-.005,2.224-.015,2.67l.012.744a6.17,6.17,0,0,0,.053.7,8.313,8.313,0,0,0,.626.661Z" transform="translate(-35.778 -27.612)" fill="#fff"/>
      <g id="Group_10008" data-name="Group 10008" transform="translate(50.35 42.483)" opacity="0.4">
        <g id="Group_10007" data-name="Group 10007">
          <g id="Group_10006" data-name="Group 10006" clip-path="url(#clip-path-3)">
            <path id="Path_6965" data-name="Path 6965" d="M94.144,83.576l-4.821-4.412L91.092,77.6l4.873,4.329q-.911.821-1.82,1.645" transform="translate(-89.323 -77.602)" fill="#020a19"/>
          </g>
        </g>
      </g>
    </g>
  </g>
</svg>
