<svg xmlns="http://www.w3.org/2000/svg" width="40" height="40" viewBox="0 0 40 40"><g id="icon" transform="translate(-350 -1026)"><rect id="bg" width="40" height="40" rx="6" transform="translate(350 1026)" fill="#f8faff"></rect><g id="icon-2" data-name="icon" transform="translate(360.637 1033.314)"><path id="Path_4886" data-name="Path 4886" d="M31.112,22.38a.25.25,0,0,0-.274.055l-1.547,1.56L27.217,21.9a6.527,6.527,0,0,0-.766-8.236A6.347,6.347,0,0,0,23.1,11.88V8.921h2.188a.254.254,0,0,0,.168-.442l-3.372-3.4a.25.25,0,0,0-.355,0l-3.381,3.41a.255.255,0,0,0-.054.276.251.251,0,0,0,.232.156h2.187v2.958a6.345,6.345,0,0,0-3.355,1.788,6.526,6.526,0,0,0-.766,8.236l-2.075,2.092-1.547-1.56a.25.25,0,0,0-.274-.055.253.253,0,0,0-.155.234v4.822a.253.253,0,0,0,.251.254h4.782a.254.254,0,0,0,.168-.442L16.2,25.7l2.074-2.092c.15.1.3.2.461.291a6.38,6.38,0,0,0,3.163.836h0a6.524,6.524,0,0,0,.719-.04,6.356,6.356,0,0,0,2.9-1.087L27.6,25.7l-1.547,1.56a.255.255,0,0,0-.054.276.252.252,0,0,0,.232.157h4.782a.252.252,0,0,0,.251-.254V22.614A.252.252,0,0,0,31.112,22.38Z" transform="translate(-12.54 -5.004)" fill="#3371ed" stroke="#3371ed" stroke-width="1"></path><ellipse id="Ellipse_25" data-name="Ellipse 25" cx="3.046" cy="3.048" rx="3.046" ry="3.048" transform="translate(6.317 10.111)" fill="#e0eafd" stroke="#3371ed" stroke-width="1"></ellipse></g></g></svg>